<svg version="1.1" viewBox="0.0 0.0 50.0 50.0" fill="none" stroke="none" stroke-linecap="square" stroke-miterlimit="10" xmlns:xlink="http://www.w3.org/1999/xlink" xmlns="http://www.w3.org/2000/svg"><clipPath id="p.0"><path d="m0 0l50.0 0l0 50.0l-50.0 0l0 -50.0z" clip-rule="nonzero"/></clipPath><g clip-path="url(#p.0)"><path fill="#000000" fill-opacity="0.0" d="m0 0l50.0 0l0 50.0l-50.0 0z" fill-rule="evenodd"/><path fill="#000000" fill-opacity="0.0" d="m7.656168 24.33071l0 0c0 -9.036597 7.3256083 -16.362206 16.362206 -16.362206l0 0c4.339525 0 8.501318 1.7238703 11.569826 4.7923784c3.0685081 3.068509 4.7923775 7.2303 4.7923775 11.569827l0 0c0 9.036596 -7.3256073 16.362204 -16.362204 16.362204l0 0c-9.036597 0 -16.362206 -7.3256073 -16.362206 -16.362204z" fill-rule="evenodd"/><path stroke="#434343" stroke-width="4.0" stroke-linejoin="round" stroke-linecap="butt" d="m7.656168 24.33071l0 0c0 -9.036597 7.3256083 -16.362206 16.362206 -16.362206l0 0c4.339525 0 8.501318 1.7238703 11.569826 4.7923784c3.0685081 3.068509 4.7923775 7.2303 4.7923775 11.569827l0 0c0 9.036596 -7.3256073 16.362204 -16.362204 16.362204l0 0c-9.036597 0 -16.362206 -7.3256073 -16.362206 -16.362204z" fill-rule="evenodd"/><path fill="#000000" d="m19.073126 9.170361l0 0c0 -2.7309828 2.2138996 -4.944882 4.9448814 -4.944882l0 0c1.3114643 0 2.5692158 0.520977 3.496561 1.4483223c0.9273453 0.9273453 1.4483223 2.1850953 1.4483223 3.4965596l0 0c0 2.7309828 -2.2138996 4.9448824 -4.9448833 4.9448824l0 0c-2.7309818 0 -4.9448814 -2.2138996 -4.9448814 -4.9448824z" fill-rule="evenodd"/><path stroke="#000000" stroke-width="1.0" stroke-linejoin="round" stroke-linecap="butt" d="m19.073126 9.170361l0 0c0 -2.7309828 2.2138996 -4.944882 4.9448814 -4.944882l0 0c1.3114643 0 2.5692158 0.520977 3.496561 1.4483223c0.9273453 0.9273453 1.4483223 2.1850953 1.4483223 3.4965596l0 0c0 2.7309828 -2.2138996 4.9448824 -4.9448833 4.9448824l0 0c-2.7309818 0 -4.9448814 -2.2138996 -4.9448814 -4.9448824z" fill-rule="evenodd"/><path fill="#000000" d="m19.073126 40.231823l0 0c0 -2.7309837 2.2138996 -4.9448814 4.9448814 -4.9448814l0 0c1.3114643 0 2.5692158 0.520977 3.496561 1.4483223c0.9273453 0.9273453 1.4483223 2.185093 1.4483223 3.4965591l0 0c0 2.73098 -2.2138996 4.9448814 -4.9448833 4.9448814l0 0c-2.7309818 0 -4.9448814 -2.2139015 -4.9448814 -4.9448814z" fill-rule="evenodd"/><path stroke="#000000" stroke-width="1.0" stroke-linejoin="round" stroke-linecap="butt" d="m19.073126 40.231823l0 0c0 -2.7309837 2.2138996 -4.9448814 4.9448814 -4.9448814l0 0c1.3114643 0 2.5692158 0.520977 3.496561 1.4483223c0.9273453 0.9273453 1.4483223 2.185093 1.4483223 3.4965591l0 0c0 2.73098 -2.2138996 4.9448814 -4.9448833 4.9448814l0 0c-2.7309818 0 -4.9448814 -2.2139015 -4.9448814 -4.9448814z" fill-rule="evenodd"/><path fill="#000000" d="m5.1066394 32.24672l0 0c0 -2.7309837 2.2138991 -4.9448814 4.944882 -4.9448814l0 0c1.3114643 0 2.5692139 0.520977 3.4965591 1.4483223c0.9273453 0.9273453 1.4483223 2.1850948 1.4483223 3.4965591l0 0c0 2.7309837 -2.2138987 4.9448814 -4.9448814 4.9448814l0 0c-2.7309828 0 -4.944882 -2.2138977 -4.944882 -4.9448814z" fill-rule="evenodd"/><path stroke="#000000" stroke-width="1.0" stroke-linejoin="round" stroke-linecap="butt" d="m5.1066394 32.24672l0 0c0 -2.7309837 2.2138991 -4.9448814 4.944882 -4.9448814l0 0c1.3114643 0 2.5692139 0.520977 3.4965591 1.4483223c0.9273453 0.9273453 1.4483223 2.1850948 1.4483223 3.4965591l0 0c0 2.7309837 -2.2138987 4.9448814 -4.9448814 4.9448814l0 0c-2.7309828 0 -4.944882 -2.2138977 -4.944882 -4.9448814z" fill-rule="evenodd"/><path fill="#000000" d="m33.039856 32.93188l0 0c0 -2.7309837 2.2138977 -4.9448833 4.9448814 -4.9448833l0 0c1.3114662 0 2.5692139 0.520977 3.4965591 1.4483223c0.9273453 0.9273453 1.4483223 2.1850967 1.4483223 3.496561l0 0c0 2.7309837 -2.2138977 4.9448814 -4.9448814 4.9448814l0 0c-2.7309837 0 -4.9448814 -2.2138977 -4.9448814 -4.9448814z" fill-rule="evenodd"/><path stroke="#000000" stroke-width="1.0" stroke-linejoin="round" stroke-linecap="butt" d="m33.039856 32.93188l0 0c0 -2.7309837 2.2138977 -4.9448833 4.9448814 -4.9448833l0 0c1.3114662 0 2.5692139 0.520977 3.4965591 1.4483223c0.9273453 0.9273453 1.4483223 2.1850967 1.4483223 3.496561l0 0c0 2.7309837 -2.2138977 4.9448814 -4.9448814 4.9448814l0 0c-2.7309837 0 -4.9448814 -2.2138977 -4.9448814 -4.9448814z" fill-rule="evenodd"/><path fill="#000000" d="m33.103333 17.018373l0 0c0 -2.7309837 2.2139015 -4.9448824 4.9448853 -4.9448824l0 0c1.3114624 0 2.5692139 0.520977 3.4965591 1.4483223c0.9273453 0.9273453 1.4483223 2.1850948 1.4483223 3.49656l0 0c0 2.7309818 -2.2139015 4.9448814 -4.9448814 4.9448814l0 0c-2.7309837 0 -4.9448853 -2.2138996 -4.9448853 -4.9448814z" fill-rule="evenodd"/><path stroke="#000000" stroke-width="1.0" stroke-linejoin="round" stroke-linecap="butt" d="m33.103333 17.018373l0 0c0 -2.7309837 2.2139015 -4.9448824 4.9448853 -4.9448824l0 0c1.3114624 0 2.5692139 0.520977 3.4965591 1.4483223c0.9273453 0.9273453 1.4483223 2.1850948 1.4483223 3.49656l0 0c0 2.7309818 -2.2139015 4.9448814 -4.9448814 4.9448814l0 0c-2.7309837 0 -4.9448853 -2.2138996 -4.9448853 -4.9448814z" fill-rule="evenodd"/><path fill="#000000" d="m5.0435257 17.018007l0 0c0 -2.7309818 2.2138991 -4.9448814 4.9448814 -4.9448814l0 0c1.3114643 0 2.5692148 0.520978 3.49656 1.4483232c0.9273453 0.9273443 1.4483223 2.1850948 1.4483223 3.4965582l0 0c0 2.7309837 -2.2138987 4.9448833 -4.9448824 4.9448833l0 0c-2.7309823 0 -4.9448814 -2.2138996 -4.9448814 -4.9448833z" fill-rule="evenodd"/><path stroke="#000000" stroke-width="1.0" stroke-linejoin="round" stroke-linecap="butt" d="m5.0435257 17.018007l0 0c0 -2.7309818 2.2138991 -4.9448814 4.9448814 -4.9448814l0 0c1.3114643 0 2.5692148 0.520978 3.49656 1.4483232c0.9273453 0.9273443 1.4483223 2.1850948 1.4483223 3.4965582l0 0c0 2.7309837 -2.2138987 4.9448833 -4.9448824 4.9448833l0 0c-2.7309823 0 -4.9448814 -2.2138996 -4.9448814 -4.9448833z" fill-rule="evenodd"/><path fill="#434343" d="m15.877119 23.8558l0 0c0 -4.4965553 3.6451778 -8.141732 8.141733 -8.141732l0 0c2.1593208 0 4.2302017 0.85778713 5.7570744 2.3846579c1.5268707 1.5268707 2.384657 3.5977535 2.384657 5.7570744l0 0c0 4.4965553 -3.6451778 8.141731 -8.141731 8.141731l0 0c-4.4965553 0 -8.141733 -3.645176 -8.141733 -8.141731z" fill-rule="evenodd"/><path stroke="#434343" stroke-width="1.0" stroke-linejoin="round" stroke-linecap="butt" d="m15.877119 23.8558l0 0c0 -4.4965553 3.6451778 -8.141732 8.141733 -8.141732l0 0c2.1593208 0 4.2302017 0.85778713 5.7570744 2.3846579c1.5268707 1.5268707 2.384657 3.5977535 2.384657 5.7570744l0 0c0 4.4965553 -3.6451778 8.141731 -8.141731 8.141731l0 0c-4.4965553 0 -8.141733 -3.645176 -8.141733 -8.141731z" fill-rule="evenodd"/></g></svg>